<svg width="37" height="34" viewBox="0 0 37 34" fill="none" xmlns="http://www.w3.org/2000/svg">
<path d="M32.375 9.91667V26.9167C32.375 27.6958 32.0733 28.3631 31.47 28.9184C30.8667 29.4737 30.1406 29.7509 29.2917 29.75H7.70833C6.86042 29.75 6.13481 29.4728 5.5315 28.9184C4.92819 28.364 4.62603 27.6968 4.625 26.9167V7.08333C4.625 6.30417 4.92717 5.63739 5.5315 5.083C6.13583 4.52861 6.86144 4.25094 7.70833 4.25H26.2083L32.375 9.91667ZM18.5 25.5C19.7847 25.5 20.8767 25.0868 21.776 24.2604C22.6753 23.434 23.125 22.4306 23.125 21.25C23.125 20.0694 22.6753 19.066 21.776 18.2396C20.8767 17.4132 19.7847 17 18.5 17C17.2153 17 16.1233 17.4132 15.224 18.2396C14.3247 19.066 13.875 20.0694 13.875 21.25C13.875 22.4306 14.3247 23.434 15.224 24.2604C16.1233 25.0868 17.2153 25.5 18.5 25.5ZM9.25 14.1667H23.125V8.5H9.25V14.1667Z" fill="white"/>
</svg>
